<svg width="25" height="25" viewBox="0 0 25 25" fill="none" xmlns="http://www.w3.org/2000/svg">
<mask id="mask0_1_26" style="mask-type:luminance" maskUnits="userSpaceOnUse" x="0" y="0" width="25" height="25">
<path d="M24.775 0.654297H0.775017V24.6543H24.775V0.654297Z" fill="white"/>
</mask>
<g mask="url(#mask0_1_26)">
<path d="M1.77502 12.6543C1.77502 12.6543 5.77502 4.6543 12.775 4.6543C19.775 4.6543 23.775 12.6543 23.775 12.6543C23.775 12.6543 19.775 20.6543 12.775 20.6543C5.77502 20.6543 1.77502 12.6543 1.77502 12.6543Z" stroke="white" stroke-width="2" stroke-linecap="round" stroke-linejoin="round"/>
<path d="M12.775 15.6543C14.4319 15.6543 15.775 14.3112 15.775 12.6543C15.775 10.9974 14.4319 9.6543 12.775 9.6543C11.1182 9.6543 9.77499 10.9974 9.77499 12.6543C9.77499 14.3112 11.1182 15.6543 12.775 15.6543Z" stroke="white" stroke-width="2" stroke-linecap="round" stroke-linejoin="round"/>
</g>
</svg>
